<?xml version="1.0" encoding="UTF-8"?>
<svg width="80px" height="80px" viewBox="0 0 80 80" version="1.1" xmlns="http://www.w3.org/2000/svg" xmlns:xlink="http://www.w3.org/1999/xlink">
    <!-- Generator: Sketch 54.1 (76490) - https://sketchapp.com -->
    <title>Group 3</title>
    <desc>Created with Sketch.</desc>
    <g id="Landing" stroke="none" stroke-width="1" fill="none" fill-rule="evenodd">
        <g id="Artboard" transform="translate(-1235.000000, -79.000000)">
            <g id="Group-3" transform="translate(1235.000000, 79.000000)">
                <polygon id="Path-20" fill="#0265B4" points="2.37623762 80 38.0476667 80 57.8217822 73.8057592 57.8217822 32.7592739 39.1402278 31.6831683"></polygon>
                <path d="M35.007718,80 C42.9062007,76.4549358 47.5649167,71.5422671 48.983866,65.2619939 C51.1122899,55.8415842 41.6771795,49.2122284 25.6239846,49.2122284 C25.4849289,49.1268448 29.8261296,43.2838248 38.6475869,31.6831683 L72.8712871,32.554425 L65.280973,67.6763421 L51.1122899,77.376144 L35.007718,80 Z" id="Path-22" fill="#002868"></path>
                <path d="M0,37.7304405 L27.114537,0.257111436 C62.3715123,-1.99071701 80,10.5003927 80,37.7304405 C80,64.9604882 64.7765038,79.0503414 34.3295113,80 C47.0553489,77.5670808 53.4182677,70.3136103 53.4182677,58.2395885 C53.4182677,40.1285557 36.3039544,37.7304405 25.227417,37.7304405 C17.8430586,37.7304405 9.43391966,37.7304405 0,37.7304405 Z" id="Path-19" fill="#3793EF"></path>
            </g>
        </g>
    </g>
</svg>