<?xml version="1.0" encoding="utf-8"?>
<!-- Generator: Adobe Illustrator 19.2.1, SVG Export Plug-In . SVG Version: 6.00 Build 0)  -->
<svg version="1.1" id="layer" xmlns="http://www.w3.org/2000/svg" xmlns:xlink="http://www.w3.org/1999/xlink" x="0px" y="0px"
	 viewBox="100 200 452 352" style="enable-background:new 0 0 652 652;" xml:space="preserve">
<style type="text/css">
	.st0{fill:#231F20;}
	.st1{fill:#009AA6;}
	.st2{fill:#FFFFFF;}
</style>
<g>
	<polygon class="st0" points="175,303.6 156.2,303.6 156.2,295.5 202.9,295.5 202.9,303.6 184.1,303.6 184.1,349.5 175,349.5 	"/>
	<polygon class="st0" points="211.4,295.5 221.2,295.5 233.7,336.5 245.6,295.5 254.1,295.5 265.8,336.5 266,336.5 278.3,295.5 
		288.1,295.5 271,349.5 261.2,349.5 249.7,309.9 238.3,349.5 228.5,349.5 	"/>
	<path class="st0" d="M319.1,294.4c15.6,0,27.5,10.9,27.5,27.6c0,17.2-11.9,28.5-27.5,28.5c-15.6,0-27.7-11.3-27.7-28.5
		C291.4,305.3,303.5,294.4,319.1,294.4z M319.1,342.4c10,0,18.1-7.5,18.1-20.3c0-12.1-7.9-19.7-18.1-19.7
		c-10.2,0-18.1,7.5-18.1,19.7C301,334.8,308.9,342.4,319.1,342.4z"/>
	<polygon class="st0" points="425.8,295.5 434.9,295.5 434.9,324.6 434.9,349.5 425.8,349.5 425.8,319.3 	"/>
	<path class="st0" d="M474.5,294.4c7.5,0,13.7,2.3,19.2,6.1c0,0-5.2,6.3-5.6,6.1c-4-2.5-8.3-4-13.3-4c-11,0-18.3,7.9-18.3,19.5
		c0,12.3,6.9,20.3,18.3,20.3c4.2,0,8.1-1.1,10.8-2.5c0-13,0-13,0-13c-13.5,0-13.5,0-13.5,0c0-6.9,0-6.9,0-6.9c22.1,0,22.1,0,22.1,0
		c0,24.7,0,24.7,0,24.7c-5.2,3.6-12.1,5.9-19.6,5.9c-16.9,0-27.5-11.5-27.5-28.5C447,306.2,457.9,294.4,474.5,294.4z"/>
	<polygon class="st0" points="507.2,295.5 516.6,295.5 534.3,320.8 552,295.5 561.4,295.5 561.4,349.5 552.4,349.5 552.4,309.1 
		534.3,334.6 516.2,309.1 516.2,349.5 507.2,349.5 	"/>
	<path class="st0" d="M590,295.5h10.8l20,54h-10l-4-11.7h-22.7l-4.2,11.7h-10L590,295.5z M586.6,330.4h17.5l-8.7-25.3h-0.2
		L586.6,330.4z"/>
	<path class="st0" d="M377.9,337.8c4.8,2.7,9.4,4.4,15.4,4.4c7.1,0,10.6-2.9,10.6-7.3c0-12.1-30.4-4.2-30.4-24.9
		c0-8.6,7.3-15.5,19.4-15.5c7.1,0,14.2,1.7,19.8,5c-6,6.3-6,6.3-6,6.3c-4.4-1.9-8.1-3.1-13.5-3.1c-6.3,0-9.8,3.1-9.8,7.3
		c0,12.1,30.2,3.8,30.2,24.9c0,8.8-6.7,15.7-20.2,15.7c-7.9,0-16.5-2.9-21.7-6.5L377.9,337.8z"/>
	<polygon class="st1" points="74.5,268.3 20.8,322.5 74.5,376.5 128.5,322.5 	"/>
	<path class="st2" d="M46.2,337.8c-0.4-17.4,20.2-15.1,20.2-23.9c0-2.9-2.1-5.4-7.1-5.4c-3.7,0-7.3,1.9-9.8,4.2
		c-3.7-3.8-3.7-3.8-3.7-3.8c3.1-3.1,8.3-5.7,13.8-5.7c8.5,0,12.9,4.8,12.9,10.5c0,13.2-20,10.9-20,21.8c19.8,0,19.8,0,19.8,0
		c0,5.2,0,5.2,0,5.2c-26,0-26,0-26,0V337.8z"/>
	<path class="st2" d="M87.9,336.5c-4,0-6.5-2.5-6.5-7.5c0-6.3,4.2-11.9,9.2-11.9c4,0,6.5,2.5,6.5,7.5
		C97,330.9,92.9,336.5,87.9,336.5z M113.1,312.2c-22.1,0-22.1,0-22.1,0l0,0c-9,0-15.6,7.1-15.6,16.7c0,7.8,4.8,12.3,11.9,12.3
		c9,0,15.8-7.3,15.8-16.7c0-3.1-0.8-5.9-2.3-7.8c7.7,0,7.7,0,7.7,0L113.1,312.2z"/>
</g>
</svg>
